<svg viewBox="72.67500000000007 96.70000000000005 605.625 688.9874999999998" xmlns="http://www.w3.org/2000/svg" xmlns:xlink="http://www.w3.org/1999/xlink" overflow="visible" width="605.625px" height="688.9874999999998px"><defs><path d="M275.684414,0.876652922 C298.838059,1.54914435 329.906472,9.13626937 355.7471,15.2297529 L355.731944,15.2730262 C397.943463,24.6870841 452.971125,41.5664426 466.9347,60.6071529 C489.4187,91.2671529 484.8307,126.127153 444.6317,165.644153 C415.2977,194.481153 386.9717,210.585153 372.4107,216.074153 C363.858947,207.086013 354.27259,195.452866 345.166172,184.184251 L345.5431,187.063753 C345.8052,205.151453 195.8084,217.517053 146.0664,197.369053 L149.907924,169.277823 C138.376043,183.58138 125.055547,200.37944 113.5941,212.425753 C99.0331,206.935753 70.7081,190.832753 41.3741,161.994753 C1.1741,122.477753 -11.4139,87.6187529 11.0701,56.9587529 C23.1971,40.4207529 69.0261,26.2177529 108.6751,16.6397529 C108.048715,16.8278037 108.709162,16.7365391 110.005927,16.5033439 C127.558487,12.2104677 191.200137,-1.57717031 275.684414,0.876652922 Z M162.310363,78.5613735 L87.8171,104.583753 C87.8171,104.583753 122.608609,134.324697 151.917069,154.584908 L162.310363,78.5613735 Z M332.466363,87.1363735 L341.108096,153.169863 C367.388419,133.830342 393.927617,109.395078 395.144211,108.27232 L395.1877,108.232153 L332.466363,87.1363735 Z" id="mastercharactersitting-path-1"/></defs><g id="Master/Character/Sitting" stroke="none" stroke-width="1" fill="none" fill-rule="evenodd"><g id="Bottom/Sitting" transform="translate(15.000000, 331.000000) scale(1 1)"><g id="Bottom/Sitting/Crossed 2" stroke="none" stroke-width="1" fill="none" fill-rule="evenodd"><g id="Crossed-2" transform="translate(65.000000, 110.000000)"><path d="M391,1.27329258e-11 L390.997181,10.5384946 C495.782485,19.8364681 658.933713,135.817305 559.020137,202 C495.735188,243.919914 467.03552,256.218825 428.053462,264.342361 L433.7133,307.3983 C418.7113,314.5763 407.1923,304.6803 399.6803,293.7943 C391.592301,282.075585 378.324742,275.081413 364.160606,275.246339 C354.385891,276.873514 343.720753,278.715149 331.9524,280.8944 L207.3214,297.2714 C183.8134,300.3604 161.0514,307.6044 140.0384,318.5884 C124.0334,326.9544 105.9864,335.5164 98.0924,336.1484 C82.3804,337.4054 81.7514,324.2074 81.7514,324.2074 L120.742214,261.014568 C115.140248,259.565605 109.761285,257.993605 104.6483,256.2893 C-63.2741842,173.510753 -28.4914464,92.2600912 208.996513,12.537314 L209,1.27329258e-11 L391,1.27329258e-11 Z M302.482523,166.892858 L301.670242,166.931682 C301.148326,167.009127 300.594729,167.057489 300.008662,167.075931 C257.903962,168.400884 201.2083,174.2053 201.2083,174.2053 L201.2083,174.2053 L306.449591,197.282008 C365.990085,182.982394 417.698345,169.388862 414.5854,166.2764 C411.68265,163.3728 327.632313,166.030283 302.482523,166.892858 Z" id="Pants" fill="#000100"/><path d="M165.0741,229.5837 C159.8881,256.8617 155.4651,284.6597 152.7191,312.5137 C148.4301,314.3917 144.1981,316.4137 140.0381,318.5877 C124.0331,326.9547 105.9861,335.5167 98.0921,336.1487 C82.69434,337.38056 81.7822932,324.729838 81.7519704,324.223316 L81.7511,324.2077 L131.3351,243.8467 C134.5841,238.5817 139.8561,234.8917 145.9171,233.6487 C150.5951,232.6887 157.1241,231.3037 165.0741,229.5837 Z M427.296427,258.594457 L433.7131,307.3986 C418.7111,314.5766 407.1921,304.6796 399.6801,293.7946 C391.3041,281.6586 377.3731,274.5886 362.6451,275.2916 C361.731028,275.335075 360.796899,275.378598 359.843446,275.422064 C385.256117,270.13175 407.613986,264.563476 427.296427,258.594457 Z" id="Shoes" fill="#286c00"/><path d="M165.0744,229.5832 C159.8874,256.8612 155.4654,284.6592 152.7194,312.5142 C170.0954,304.9052 188.4684,299.7492 207.3214,297.2712 L243.8774,292.4682 C235.6014,267.5102 226.9904,242.6442 217.6254,217.9292 C197.2734,222.5262 178.9934,226.5692 165.0744,229.5832" id="Skin" fill="#5a3203"/><path d="M306.344594,197.306556 C306.473467,197.843594 306.142583,198.383422 305.605544,198.512294 C278.468119,205.024424 248.053045,212.079783 217.845568,218.904317 C217.30686,219.026023 216.771489,218.687976 216.649783,218.149268 C216.528077,217.61056 216.866124,217.075189 217.404832,216.953483 C247.604145,210.130794 278.010734,203.077403 305.138856,196.567506 C305.675894,196.438633 306.215722,196.769517 306.344594,197.306556 Z M164.980418,165.392645 L201.418418,173.227645 C201.958362,173.343746 202.301955,173.875574 202.185855,174.415518 C202.069754,174.955462 201.537926,175.299055 200.997982,175.182955 L164.559982,167.347955 C164.020038,167.231854 163.676445,166.700026 163.792545,166.160082 C163.908646,165.620138 164.440474,165.276545 164.980418,165.392645 Z M436.218831,161.02051 C436.34922,161.557182 436.019862,162.097942 435.48319,162.228331 L414.82119,167.248331 C414.284518,167.37872 413.743758,167.049362 413.613369,166.51269 C413.48298,165.976018 413.812338,165.435258 414.34901,165.304869 L435.01101,160.284869 C435.547682,160.15448 436.088442,160.483838 436.218831,161.02051 Z" id="Pants-details" fill="#b5b5b5"/></g></g></g><g id="Head" transform="translate(247.000000, 64.000000) scale(1 1)"><g id="Head/Pompadour" stroke="none" stroke-width="1" fill="none" fill-rule="evenodd"><g id="Short-2" transform="translate(42.000000, 36.000000)"><path d="M69.7058,14.5639 C38.1518,14.5639 12.5728,37.3239 12.5728,65.3989 C12.5728,71.1459 13.6608,76.6649 15.6368,81.8169 C15.4428,81.8109 15.2518,81.7929 15.0558,81.7929 C6.7408,81.7929 -0.0002,87.3379 -0.0002,94.1779 C-0.0002,101.0189 6.7408,106.5639 15.0558,106.5639 C19.6518,106.5639 23.7618,104.8669 26.5218,102.1939 C27.5178,101.2289 29.0588,101.1269 30.1128,102.0279 C37.8328,108.6379 47.6298,113.3399 58.5538,115.2639 C59.9578,115.5119 60.9498,116.7769 60.8678,118.1999 L59.3078,146 L85.7468,146 L84.5228,124.0629 C84.2258,118.8759 87.2628,114.0169 92.1198,112.1709 C112.5328,104.4179 126.8388,86.3949 126.8388,65.3989 C126.8388,37.3239 101.2598,14.5639 69.7058,14.5639 Z" id="Skin" fill="#5a3203"/><path d="M98.0886,0.5346 C16.8626,-5.6464 9.3586,43.7956 9.3586,43.7956 C9.3586,43.7956 5.5816,64.6576 15.6366,81.8166 C16.7556,83.7256 17.7206,85.1426 18.5556,86.1586 L20.8416,89.5586 C22.0286,91.3266 24.0476,92.3526 26.1746,92.2706 L29.6736,92.1376 C31.8806,91.9356 33.3656,89.7866 32.7746,87.6516 L28.7206,73.0296 C36.8176,64.0806 37.3006,41.1426 37.3006,41.1426 C40.0996,42.5426 43.5436,43.6246 47.3976,44.4276 C85.0676,55.6626 111.7346,51.7276 125.1796,47.9236 C133.2066,45.6516 140.1876,40.4616 144.2506,33.1766 C150.7126,21.5906 150.5466,4.5256 98.0886,0.5346" id="Hair" fill="#eeb197"/></g></g></g><g id="Face" transform="translate(321.000000, 155.000000) scale(1 1)"><g id="Face/Blushing" stroke="none" stroke-width="1" fill="none" fill-rule="evenodd"><g id="Super-Happy" transform="translate(-4.000000, 0.000000)"><g id="Surprised" transform="translate(19.000000, 13.000000)" fill="#000100"><path d="M15.2816,13.3978 L1.4241,3.6349 C0.7468,3.1578 0.5846,2.222 1.0617,1.5448 C1.5389,0.8676 2.4746,0.7053 3.1519,1.1825 L18.6419,12.0955 C19.4586,12.6709 19.4951,13.8689 18.715,14.493 L4.633,25.758 C3.9861,26.2755 3.0421,26.1706 2.5246,25.5237 C2.0071,24.8768 2.112,23.9329 2.759,23.4154 L15.2816,13.3978 Z" id="Stroke-1"/><path d="M56.8044,2.5247 C57.3704,1.9198 57.3388,0.9705 56.7338,0.4046 C56.1288,-0.1613 55.1796,-0.1297 54.6136,0.4753 L44.4046,11.3883 C43.8462,11.9852 43.8685,12.9194 44.4549,13.4889 L56.7759,25.4579 C57.3701,26.0352 58.3197,26.0214 58.897,25.4272 C59.4742,24.833 59.4604,23.8833 58.8662,23.3061 L47.6011,12.3628 L56.8044,2.5247 Z" id="Stroke-3"/></g><path d="M37.9216,44.0808 C37.2823,43.5539 37.1912,42.6086 37.7181,41.9693 C38.2449,41.33 39.1903,41.2389 39.8296,41.7657 C39.9658,41.878 40.2762,42.1001 40.7471,42.3822 C41.5567,42.8673 42.5009,43.3155 43.5657,43.6787 C48.2622,45.2809 53.5674,44.7705 59.3408,41.0277 C60.0359,40.577 60.9647,40.7752 61.4154,41.4703 C61.866,42.1655 61.6679,43.0943 60.9727,43.5449 C54.401,47.8054 48.1372,48.4079 42.5971,46.5181 C40.4044,45.7701 38.8179,44.8195 37.9216,44.0808 Z" id="Stroke-5" fill="#000100"/><circle id="Ellipse-96" fill="#be8d79" fill-rule="nonzero" cx="23" cy="42" r="9"/><circle id="Ellipse-97" fill="#be8d79" fill-rule="nonzero" cx="75" cy="42" r="9"/></g></g></g><g id="Body" transform="translate(64.000000, 26.000000) scale(1 1)"><defs><path d="M253.2552,132.3812 C253.2552,132.3812 310.0672,112.6752 317.5692,93.5252 C317.5692,93.5252 293.3342,30.4432 251.4102,13.3502 C213.8082,-1.9788 128.2152,-4.7098 82.0982,9.8032 C45.3192,21.3772 21.0082,62.2612 0.9102,99.3312 C0.9102,99.3312 33.9612,132.3812 77.7302,138.1882 L84.6782,173.3092 L162.0782,198.4642 L257.5372,173.3092 L253.2552,132.3812 Z" id="bodyholding-object-path-1"/></defs><g id="Body/Holding Object" stroke="none" stroke-width="1" fill="none" fill-rule="evenodd"><g id="Object" transform="translate(126.000000, 218.000000)"><g id="Tshirt" transform="translate(20.000000, 0.000000)"><mask id="bodyholding-object-mask-2" fill="#ffffff"><use xlink:href="#bodyholding-object-path-1" fill="#ffffff"/></mask><use fill="#b5b5b5" xlink:href="#bodyholding-object-path-1"/><g mask="url(#bodyholding-object-mask-2)"><g transform="translate(-45.000000, -10.000000) scale(1 1)" id="Patterns"><g id="Patterns/Pattern 5" stroke="none" stroke-width="1" fill="none" fill-rule="evenodd"><path d="M217.409367,0.00415373877 C218.193368,-0.0520138171 218.880095,0.468018146 218.943213,1.16567764 C220.522991,18.6271511 221.066625,26.9584181 220.993599,36.9438787 C220.897282,50.1139055 219.405315,61.6622496 216.100929,72.5077376 C213.808823,80.0316099 212.222446,84.4649331 206.137501,100.858669 C202.245413,111.344527 199.838687,118.121655 197.828675,124.565722 C199.019469,127.204959 200.127964,129.907698 201.159563,132.686486 C210.223253,157.100519 213.617697,184.263479 211.288803,211.382108 C212.802176,212.884428 214.406526,214.363482 216.102552,215.821111 C216.668308,216.307343 216.683992,217.109639 216.137584,217.613089 C215.591176,218.116539 214.689589,218.130496 214.123833,217.644264 C213.033818,216.707463 211.980241,215.761671 210.962676,214.806753 L210.868326,215.711114 L210.868326,215.711114 L210.741154,216.852936 C210.660876,217.554932 209.963512,218.065438 209.183549,217.993185 C208.403587,217.920932 207.83638,217.293279 207.916658,216.591283 C208.081535,215.149513 208.230005,213.707101 208.362077,212.26448 C197.341979,201.055634 191.072092,188.614769 188.893799,174.73468 C186.746409,161.051515 188.517998,146.320758 193.674237,128.570792 C194.050716,127.274794 194.432342,125.998371 194.82765,124.715038 C190.260518,114.772235 184.494491,105.725197 177.258043,96.8014536 C170.538129,88.5146834 163.925244,81.6759885 151.360841,69.6964531 C153.216927,74.5999764 155.47429,80.2445116 158.27426,87.0919361 C164.660803,102.710449 167.249539,109.457881 169.878602,118.039712 C173.204791,128.898734 174.936338,135.615077 176.070363,143.435028 C177.610934,154.058422 177.295805,163.696296 174.681304,172.541685 C168.09568,194.822195 147.349686,210.484544 108.745172,217.968741 C107.981189,218.116853 107.216761,217.724422 107.037775,217.09222 C106.858789,216.460019 107.333023,215.82745 108.097006,215.679338 C145.700531,208.389201 165.601045,193.365154 171.921129,171.983021 C174.44579,163.441578 174.751932,154.078586 173.249064,143.715191 C172.133427,136.022033 170.422269,129.384774 167.124179,118.617491 C164.519575,110.115499 161.945088,103.405205 155.582637,87.8456097 C151.765434,78.5105091 148.949617,71.3944261 146.779651,65.3367013 C137.245658,56.1328858 128.903423,45.6277506 121.991642,34.203113 C114.322084,42.8441016 105.453206,50.9574017 95.5388715,58.3781915 C96.2960258,63.0294989 97.3236986,67.4975096 98.6481384,71.844519 C100.92116,79.3057426 102.500878,83.7204591 108.567091,100.063729 C113.414135,113.122378 115.970671,120.463564 118.325763,128.570792 C123.482002,146.320758 125.253591,161.051515 123.106201,174.73468 C120.573145,190.875316 112.507235,205.069763 97.876167,217.644264 C97.3104109,218.130496 96.4088238,218.116539 95.8624157,217.613089 C95.3160077,217.109639 95.3316924,216.307343 95.8974485,215.821111 C110.068921,203.641605 117.839866,189.966238 120.285272,174.384114 C122.3731,161.080474 120.638975,146.661233 115.568105,129.205143 C113.233215,121.167461 110.690807,113.86684 105.862499,100.858669 C99.777554,84.4649331 98.1911774,80.0316099 95.8990706,72.5077376 C94.6888231,68.5355244 93.7216983,64.4690283 92.9772202,60.2631068 C90.0707963,62.3661286 87.0773696,64.411245 84.0018927,66.3937683 C68.8384773,76.1687627 59.0978394,82.6859049 50.9680376,88.7677722 C55.4513047,105.671398 56.8169374,123.848498 55.5483001,143.948754 C54.2486244,164.540783 51.005716,182.776536 43.4376364,217.035098 C43.2965237,217.673876 42.5550711,218.097239 41.7815556,217.980706 C41.0080402,217.864174 40.4953764,217.251875 40.6364891,216.613097 C48.1834452,182.450155 51.4133746,164.287387 52.704782,143.826362 C53.9272805,124.457126 52.6814268,106.918327 48.5355376,90.6122942 C45.8326231,92.6872185 43.2761646,94.7445393 40.7090179,96.899686 C27.0175789,108.393793 16.9103671,120.08615 9.53250193,133.615586 C-4.47167987,159.295692 -9.13068987,188.083352 -4.33691919,216.621012 C-4.22599001,217.281381 -4.76497972,217.893261 -5.54078641,217.987685 C-6.3165931,218.082108 -7.03543456,217.623318 -7.14636375,216.962949 C-12.0166172,187.969982 -7.28117199,158.710035 6.95829276,132.598479 C14.4883573,118.789942 24.7955708,106.866216 38.7161622,95.1797332 C41.6890184,92.6839891 44.6443023,90.3203894 47.8180298,87.9139944 C46.380612,82.7054675 44.6382039,77.6217889 42.5780972,72.6425763 C40.7314403,68.1792141 38.6835997,63.8391359 35.3607136,57.1764476 C34.9715184,56.3960758 34.6862399,55.8257981 33.9431771,54.3417694 C27.4559075,41.385536 24.7784637,35.5181097 22.3769241,28.1507943 C19.1911314,18.3775886 18.1891577,9.59154975 19.6716983,1.00979985 C19.7827472,0.366988488 20.5037883,-0.0797711836 21.2821886,0.0119341969 C22.060589,0.103639577 22.6015842,0.699083048 22.4905353,1.34189441 C21.0676146,9.57853196 22.0340518,18.052961 25.1264244,27.5395775 C27.4852316,34.7758007 30.1344657,40.5814074 36.5744852,53.4432738 L36.8329598,53.9595223 C37.3910981,55.0743669 37.6523909,55.5969556 37.9935361,56.2809827 C41.3369831,62.9848976 43.4024922,67.3624212 45.2725425,71.8823253 C47.1957069,76.5305527 48.8457154,81.266323 50.2341551,86.1052434 C58.1948341,80.2173094 67.7723218,73.8257286 82.2885014,64.4679703 C85.8074666,62.1995643 89.2171298,59.8483187 92.5118662,57.4203384 C91.5377292,50.9856879 91.0595534,44.2117125 91.0064015,36.9438787 C90.9333747,26.9584181 91.4770087,18.6271511 93.0567867,1.16567764 C93.1199054,0.468018146 93.8066318,-0.0520138171 94.5906329,0.00415373877 C95.3746339,0.0603212946 95.9590245,0.671418859 95.8959057,1.36907835 C94.3226539,18.7584175 93.7823293,27.0389669 93.8546464,36.927384 C93.9026288,43.4883572 94.3013309,49.6320296 95.1025496,55.4760815 C104.655279,48.1855986 113.190797,40.2395466 120.565597,31.7954088 C115.035095,22.2784008 110.48823,12.1546487 107.057861,1.63806611 C106.836992,0.960939554 107.267827,0.250868216 108.020159,0.0520773892 C108.772491,-0.146713437 109.561427,0.24105429 109.782296,0.918180849 C113.034677,10.8891005 117.305786,20.5000329 122.476595,29.5626829 C130.139898,20.4483003 136.461581,10.7806593 141.266684,0.752040787 C141.562642,0.134352152 142.390832,-0.162161009 143.116497,0.0897601052 C143.331075,0.164252908 143.512662,0.278358283 143.654353,0.418106461 C144.013008,0.0644028749 144.609683,-0.0939108835 145.175514,0.0570050979 C145.922349,0.256197594 146.332642,0.918672054 146.091928,1.53668322 C140.949515,14.7393523 140.375321,28.5539847 143.625818,44.2023774 C144.978434,50.7140778 146.6243,56.5513246 149.26011,63.9822068 L149.885105,64.5788364 C164.877821,78.7757922 172.133954,86.1477071 179.551557,95.2948443 C186.204148,103.498593 191.642679,111.816272 196.064271,120.81588 C197.898453,115.184216 200.135735,108.9468 203.432909,100.063729 C209.499122,83.7204591 211.07884,79.3057426 213.351862,71.844519 C216.585959,61.2297285 218.050529,49.893446 218.145354,36.927384 C218.217671,27.0389669 217.677346,18.7584175 216.104094,1.36907835 C216.040976,0.671418859 216.625366,0.0603212946 217.409367,0.00415373877 Z M279.717811,11.011332 C280.496212,10.924254 281.217253,11.3484707 281.328302,11.9588466 C282.810842,20.1075725 281.808869,28.4502791 278.623076,37.7303414 C276.221536,44.7259115 273.544092,50.297275 267.056823,62.5997535 C266.31376,64.0089 266.028482,64.5504023 265.639286,65.2913975 C262.3164,71.6178951 260.26856,75.7389785 258.421903,79.9771252 C249.610762,100.198792 246.611279,122.235028 248.295218,147.569068 C249.586625,166.997656 252.816555,184.243955 260.363511,216.683078 C260.504624,217.289624 259.99196,217.871028 259.218444,217.98168 C258.444929,218.092332 257.703476,217.690331 257.562364,217.083786 C249.994284,184.553867 246.751376,167.238266 245.4517,147.685284 C243.750163,122.086494 246.787424,99.7727119 255.727457,79.2552355 C257.597508,74.9633999 259.663017,70.8067606 263.006464,64.4411166 C263.396344,63.6988172 263.681927,63.1567365 264.425515,61.7465949 C270.865534,49.5337217 273.514768,44.0210585 275.873576,37.1499657 C278.965948,28.1420318 279.932385,20.0952115 278.509465,12.2741841 C278.398416,11.6638082 278.939411,11.0984101 279.717811,11.011332 Z M196.577547,128.703258 L196.561838,128.759322 L196.561838,128.759322 L196.431895,129.205143 C191.361025,146.661233 189.6269,161.080474 191.714728,174.384114 C193.691808,186.982063 199.149935,198.333657 208.657208,208.656042 C210.541632,182.713032 207.125296,156.819777 198.466504,133.496379 C197.863853,131.873036 197.234535,130.276275 196.577547,128.703258 Z M141.466653,6.46459073 L141.105558,7.13769965 C136.442042,15.768877 130.67019,24.100328 123.903819,32.0096623 C129.822363,41.9582135 136.837464,51.2099265 144.785143,59.5074347 C143.087801,54.2676668 141.871707,49.6380466 140.825349,44.6007172 C137.959379,30.8034951 138.003707,18.3505618 141.466653,6.46459073 Z" id="Pattern" fill="#000100"/></g></g></g><g mask="url(#bodyholding-object-mask-2)"><g transform="translate(235.000000, -10.000000) scale(1 1)" id="Patterns"><g id="Patterns/Pattern 5" stroke="none" stroke-width="1" fill="none" fill-rule="evenodd"><path d="M217.409367,0.00415373877 C218.193368,-0.0520138171 218.880095,0.468018146 218.943213,1.16567764 C220.522991,18.6271511 221.066625,26.9584181 220.993599,36.9438787 C220.897282,50.1139055 219.405315,61.6622496 216.100929,72.5077376 C213.808823,80.0316099 212.222446,84.4649331 206.137501,100.858669 C202.245413,111.344527 199.838687,118.121655 197.828675,124.565722 C199.019469,127.204959 200.127964,129.907698 201.159563,132.686486 C210.223253,157.100519 213.617697,184.263479 211.288803,211.382108 C212.802176,212.884428 214.406526,214.363482 216.102552,215.821111 C216.668308,216.307343 216.683992,217.109639 216.137584,217.613089 C215.591176,218.116539 214.689589,218.130496 214.123833,217.644264 C213.033818,216.707463 211.980241,215.761671 210.962676,214.806753 L210.868326,215.711114 L210.868326,215.711114 L210.741154,216.852936 C210.660876,217.554932 209.963512,218.065438 209.183549,217.993185 C208.403587,217.920932 207.83638,217.293279 207.916658,216.591283 C208.081535,215.149513 208.230005,213.707101 208.362077,212.26448 C197.341979,201.055634 191.072092,188.614769 188.893799,174.73468 C186.746409,161.051515 188.517998,146.320758 193.674237,128.570792 C194.050716,127.274794 194.432342,125.998371 194.82765,124.715038 C190.260518,114.772235 184.494491,105.725197 177.258043,96.8014536 C170.538129,88.5146834 163.925244,81.6759885 151.360841,69.6964531 C153.216927,74.5999764 155.47429,80.2445116 158.27426,87.0919361 C164.660803,102.710449 167.249539,109.457881 169.878602,118.039712 C173.204791,128.898734 174.936338,135.615077 176.070363,143.435028 C177.610934,154.058422 177.295805,163.696296 174.681304,172.541685 C168.09568,194.822195 147.349686,210.484544 108.745172,217.968741 C107.981189,218.116853 107.216761,217.724422 107.037775,217.09222 C106.858789,216.460019 107.333023,215.82745 108.097006,215.679338 C145.700531,208.389201 165.601045,193.365154 171.921129,171.983021 C174.44579,163.441578 174.751932,154.078586 173.249064,143.715191 C172.133427,136.022033 170.422269,129.384774 167.124179,118.617491 C164.519575,110.115499 161.945088,103.405205 155.582637,87.8456097 C151.765434,78.5105091 148.949617,71.3944261 146.779651,65.3367013 C137.245658,56.1328858 128.903423,45.6277506 121.991642,34.203113 C114.322084,42.8441016 105.453206,50.9574017 95.5388715,58.3781915 C96.2960258,63.0294989 97.3236986,67.4975096 98.6481384,71.844519 C100.92116,79.3057426 102.500878,83.7204591 108.567091,100.063729 C113.414135,113.122378 115.970671,120.463564 118.325763,128.570792 C123.482002,146.320758 125.253591,161.051515 123.106201,174.73468 C120.573145,190.875316 112.507235,205.069763 97.876167,217.644264 C97.3104109,218.130496 96.4088238,218.116539 95.8624157,217.613089 C95.3160077,217.109639 95.3316924,216.307343 95.8974485,215.821111 C110.068921,203.641605 117.839866,189.966238 120.285272,174.384114 C122.3731,161.080474 120.638975,146.661233 115.568105,129.205143 C113.233215,121.167461 110.690807,113.86684 105.862499,100.858669 C99.777554,84.4649331 98.1911774,80.0316099 95.8990706,72.5077376 C94.6888231,68.5355244 93.7216983,64.4690283 92.9772202,60.2631068 C90.0707963,62.3661286 87.0773696,64.411245 84.0018927,66.3937683 C68.8384773,76.1687627 59.0978394,82.6859049 50.9680376,88.7677722 C55.4513047,105.671398 56.8169374,123.848498 55.5483001,143.948754 C54.2486244,164.540783 51.005716,182.776536 43.4376364,217.035098 C43.2965237,217.673876 42.5550711,218.097239 41.7815556,217.980706 C41.0080402,217.864174 40.4953764,217.251875 40.6364891,216.613097 C48.1834452,182.450155 51.4133746,164.287387 52.704782,143.826362 C53.9272805,124.457126 52.6814268,106.918327 48.5355376,90.6122942 C45.8326231,92.6872185 43.2761646,94.7445393 40.7090179,96.899686 C27.0175789,108.393793 16.9103671,120.08615 9.53250193,133.615586 C-4.47167987,159.295692 -9.13068987,188.083352 -4.33691919,216.621012 C-4.22599001,217.281381 -4.76497972,217.893261 -5.54078641,217.987685 C-6.3165931,218.082108 -7.03543456,217.623318 -7.14636375,216.962949 C-12.0166172,187.969982 -7.28117199,158.710035 6.95829276,132.598479 C14.4883573,118.789942 24.7955708,106.866216 38.7161622,95.1797332 C41.6890184,92.6839891 44.6443023,90.3203894 47.8180298,87.9139944 C46.380612,82.7054675 44.6382039,77.6217889 42.5780972,72.6425763 C40.7314403,68.1792141 38.6835997,63.8391359 35.3607136,57.1764476 C34.9715184,56.3960758 34.6862399,55.8257981 33.9431771,54.3417694 C27.4559075,41.385536 24.7784637,35.5181097 22.3769241,28.1507943 C19.1911314,18.3775886 18.1891577,9.59154975 19.6716983,1.00979985 C19.7827472,0.366988488 20.5037883,-0.0797711836 21.2821886,0.0119341969 C22.060589,0.103639577 22.6015842,0.699083048 22.4905353,1.34189441 C21.0676146,9.57853196 22.0340518,18.052961 25.1264244,27.5395775 C27.4852316,34.7758007 30.1344657,40.5814074 36.5744852,53.4432738 L36.8329598,53.9595223 C37.3910981,55.0743669 37.6523909,55.5969556 37.9935361,56.2809827 C41.3369831,62.9848976 43.4024922,67.3624212 45.2725425,71.8823253 C47.1957069,76.5305527 48.8457154,81.266323 50.2341551,86.1052434 C58.1948341,80.2173094 67.7723218,73.8257286 82.2885014,64.4679703 C85.8074666,62.1995643 89.2171298,59.8483187 92.5118662,57.4203384 C91.5377292,50.9856879 91.0595534,44.2117125 91.0064015,36.9438787 C90.9333747,26.9584181 91.4770087,18.6271511 93.0567867,1.16567764 C93.1199054,0.468018146 93.8066318,-0.0520138171 94.5906329,0.00415373877 C95.3746339,0.0603212946 95.9590245,0.671418859 95.8959057,1.36907835 C94.3226539,18.7584175 93.7823293,27.0389669 93.8546464,36.927384 C93.9026288,43.4883572 94.3013309,49.6320296 95.1025496,55.4760815 C104.655279,48.1855986 113.190797,40.2395466 120.565597,31.7954088 C115.035095,22.2784008 110.48823,12.1546487 107.057861,1.63806611 C106.836992,0.960939554 107.267827,0.250868216 108.020159,0.0520773892 C108.772491,-0.146713437 109.561427,0.24105429 109.782296,0.918180849 C113.034677,10.8891005 117.305786,20.5000329 122.476595,29.5626829 C130.139898,20.4483003 136.461581,10.7806593 141.266684,0.752040787 C141.562642,0.134352152 142.390832,-0.162161009 143.116497,0.0897601052 C143.331075,0.164252908 143.512662,0.278358283 143.654353,0.418106461 C144.013008,0.0644028749 144.609683,-0.0939108835 145.175514,0.0570050979 C145.922349,0.256197594 146.332642,0.918672054 146.091928,1.53668322 C140.949515,14.7393523 140.375321,28.5539847 143.625818,44.2023774 C144.978434,50.7140778 146.6243,56.5513246 149.26011,63.9822068 L149.885105,64.5788364 C164.877821,78.7757922 172.133954,86.1477071 179.551557,95.2948443 C186.204148,103.498593 191.642679,111.816272 196.064271,120.81588 C197.898453,115.184216 200.135735,108.9468 203.432909,100.063729 C209.499122,83.7204591 211.07884,79.3057426 213.351862,71.844519 C216.585959,61.2297285 218.050529,49.893446 218.145354,36.927384 C218.217671,27.0389669 217.677346,18.7584175 216.104094,1.36907835 C216.040976,0.671418859 216.625366,0.0603212946 217.409367,0.00415373877 Z M279.717811,11.011332 C280.496212,10.924254 281.217253,11.3484707 281.328302,11.9588466 C282.810842,20.1075725 281.808869,28.4502791 278.623076,37.7303414 C276.221536,44.7259115 273.544092,50.297275 267.056823,62.5997535 C266.31376,64.0089 266.028482,64.5504023 265.639286,65.2913975 C262.3164,71.6178951 260.26856,75.7389785 258.421903,79.9771252 C249.610762,100.198792 246.611279,122.235028 248.295218,147.569068 C249.586625,166.997656 252.816555,184.243955 260.363511,216.683078 C260.504624,217.289624 259.99196,217.871028 259.218444,217.98168 C258.444929,218.092332 257.703476,217.690331 257.562364,217.083786 C249.994284,184.553867 246.751376,167.238266 245.4517,147.685284 C243.750163,122.086494 246.787424,99.7727119 255.727457,79.2552355 C257.597508,74.9633999 259.663017,70.8067606 263.006464,64.4411166 C263.396344,63.6988172 263.681927,63.1567365 264.425515,61.7465949 C270.865534,49.5337217 273.514768,44.0210585 275.873576,37.1499657 C278.965948,28.1420318 279.932385,20.0952115 278.509465,12.2741841 C278.398416,11.6638082 278.939411,11.0984101 279.717811,11.011332 Z M196.577547,128.703258 L196.561838,128.759322 L196.561838,128.759322 L196.431895,129.205143 C191.361025,146.661233 189.6269,161.080474 191.714728,174.384114 C193.691808,186.982063 199.149935,198.333657 208.657208,208.656042 C210.541632,182.713032 207.125296,156.819777 198.466504,133.496379 C197.863853,131.873036 197.234535,130.276275 196.577547,128.703258 Z M141.466653,6.46459073 L141.105558,7.13769965 C136.442042,15.768877 130.67019,24.100328 123.903819,32.0096623 C129.822363,41.9582135 136.837464,51.2099265 144.785143,59.5074347 C143.087801,54.2676668 141.871707,49.6380466 140.825349,44.6007172 C137.959379,30.8034951 138.003707,18.3505618 141.466653,6.46459073 Z" id="Pattern" fill="#000100"/></g></g></g></g><path d="M334.3442,98.7865 C334.8942,99.7885 335.2252,96.5445 335.9452,97.4515 C384.4662,158.6455 385.7712,191.3255 379.6212,207.3975 C376.4822,215.6015 368.5572,220.3385 359.8002,221.0265 C312.5192,224.7465 217.4062,223.4615 189.2602,218.6835 C181.470804,217.361726 174.717804,214.621484 168.951417,211.21772 C166.916169,211.084147 165.8125,210.8184 165.8125,210.8184 C165.8125,210.8184 3.1065,224.5764 0.2665,187.1834 C-2.6295,149.0554 18.8495,120.8534 27.5375,104.9274 C40.3235,115.0714 67.7905,134.0964 97.3525,138.1304 L97.3525,138.1304 L73.2705,161.8924 C85.353035,166.788692 119.37102,169.186155 140.055961,170.223273 C140.072257,169.726543 140.235292,169.283554 140.5922,168.9265 C143.4212,166.0975 149.7012,169.6155 150.0872,169.8055 C150.1152,169.8295 147.1712,166.3795 147.1142,165.1575 C147.0392,163.5235 148.8962,162.6385 150.6282,162.2385 C154.136285,161.4285 158.300731,164.128561 158.648799,164.35982 L158.6722,164.3755 C158.6722,164.3755 156.8452,161.9225 156.9952,160.4985 C157.2072,158.4875 160.4692,157.3655 161.8152,157.5645 C163.774522,157.854693 167.643905,157.793285 178.487628,165.592623 C184.142513,163.896369 188.3495,162.4744 188.3495,162.4744 C193.2715,151.7324 206.1495,139.7864 208.7645,138.9294 C213.0775,137.5144 212.0285,146.4304 212.0285,146.4304 C214.6805,144.0164 216.0775,141.4334 217.8955,138.8934 C221.5285,133.8184 224.6075,133.1404 225.7265,133.6984 C229.1765,135.4244 227.8455,140.6624 227.8455,140.6624 C227.8455,140.6624 231.8785,133.3634 235.2345,133.6984 C238.5915,134.0344 239.1425,140.7694 239.1425,140.7694 C241.1565,136.1824 242.8705,136.9574 242.8705,136.9574 C243.7165,136.5964 248.0425,140.0974 246.0645,149.0514 C244.823768,154.670278 242.674301,161.73828 233.772128,173.02546 C242.192518,171.41657 251.364046,169.90192 260.4642,168.8355 C301.5942,164.0155 313.0552,166.8275 313.0552,166.8275 L313.0552,166.8275 L274.3592,131.9885 C281.4942,129.4215 321.4202,114.5485 334.3442,98.7865 Z M225.3448,2.7834 C225.3448,2.7834 217.8638,17.5314 182.7748,17.9734 C147.6858,18.4144 139.9618,2.0844 139.9618,2.0844 C139.9618,2.0844 179.2058,-3.0406 225.3448,2.7834 Z" id="Skin" fill="#5a3203"/><path d="M151.5501,169.886528 C152.25824,170.53321 152.908182,171.217657 153.521399,171.93419 C153.84898,172.316962 154.38393,172.982463 154.359117,172.956224 C154.394108,172.993283 154.464698,173.06767 154.567281,173.175182 C154.739614,173.355796 154.940896,173.565521 155.169198,173.801925 C155.822233,174.478134 156.560279,175.231943 157.3679,176.043886 C159.675074,178.363408 162.076033,180.682724 164.446496,182.845575 C165.534506,183.838294 166.59288,184.776368 167.614454,185.650889 C168.674195,186.558083 169.687359,187.3909 170.64737,188.141352 C171.082486,188.481488 171.159483,189.109954 170.819348,189.54507 C170.479212,189.980186 169.850746,190.057183 169.41563,189.717048 C168.43094,188.947304 167.395091,188.09584 166.313826,187.170221 C165.275465,186.281328 164.20143,185.329374 163.098462,184.323007 C160.701737,182.136194 158.278289,179.795154 155.949917,177.454321 C155.135098,176.63514 154.3902,175.874333 153.730548,175.191272 C153.499409,174.951931 153.295349,174.739311 153.120285,174.555835 C153.014821,174.445303 152.942753,174.369356 152.89108,174.314344 C152.859912,174.28001 152.295117,173.57724 152.001887,173.234605 C151.438512,172.576312 150.843594,171.94981 150.201427,171.363376 C147.621691,169.007532 145.084683,168.002466 142.771217,168.915533 C140.705232,169.729899 140.612717,170.627079 141.716325,172.332343 C142.022619,172.806194 142.510229,173.465694 143.132138,174.256069 C143.220467,174.368325 143.31112,174.482728 143.403924,174.599091 C143.871332,175.185156 144.373164,175.796052 144.875124,176.39488 C145.050897,176.604572 145.21406,176.797694 145.360368,176.969691 C145.447829,177.072508 145.510471,177.145714 145.542614,177.183078 L145.557069,177.200267 C145.569988,177.216009 145.582417,177.232132 145.59434,177.248608 L145.605614,177.264436 C145.63446,177.305934 145.693326,177.389517 145.781053,177.51237 C145.928703,177.719138 146.102905,177.959565 146.302497,178.230835 C146.874334,179.008034 147.533872,179.874948 148.271779,180.809031 C150.380372,183.478207 152.691454,186.147277 155.128996,188.635276 C158.325169,191.89761 161.495805,194.595995 164.551678,196.537095 C165.017864,196.833218 165.155728,197.451192 164.859605,197.917378 C164.563482,198.383564 163.945508,198.521428 163.479322,198.225305 C160.277837,196.191711 156.99547,193.398238 153.70037,190.034929 C151.208739,187.491721 148.852251,184.770211 146.702399,182.048808 C145.94985,181.096189 145.276533,180.211165 144.691559,179.416111 C144.50071,179.156724 144.331931,178.924063 144.186138,178.720376 C142.682337,178.392749 142.375856,178.729276 142.408792,179.793201 C142.418963,180.121739 142.471944,180.482533 142.563335,180.908806 C142.594636,181.054802 142.69337,181.478501 142.702037,181.51795 C143.288187,184.175939 146.213581,188.689164 150.786314,194.33157 C160.336037,206.111804 173.434034,214.114174 187.779949,216.709533 C188.37224,216.817573 188.976378,216.916997 189.598049,217.009097 C190.144371,217.090033 190.52164,217.598527 190.440703,218.144849 C190.359767,218.691171 189.851273,219.06844 189.304951,218.987503 C188.661694,218.892206 188.03565,218.789176 187.422477,218.677326 C172.596595,215.995137 159.077842,207.735701 149.232597,195.59092 C144.456027,189.696996 141.427192,185.024183 140.748796,181.947892 C140.744023,181.926166 140.643731,181.495782 140.607775,181.328071 C140.493339,180.794311 140.424264,180.32392 140.40975,179.855087 C140.357888,178.179822 141.079365,177.024068 142.547368,176.718783 C142.305739,176.42544 142.069232,176.13317 141.840309,175.846131 C141.744829,175.726413 141.651463,175.608586 141.560372,175.492819 C140.903257,174.657702 140.384067,173.95549 140.036975,173.418521 C138.33123,170.782853 138.574897,168.419862 142.037383,167.055025 C145.238191,165.791747 148.466752,167.07078 151.5501,169.886528 Z M177.679514,163.76111 C177.726257,163.793231 177.813499,163.853513 177.94047,163.941768 C178.151238,164.088269 178.395485,164.259115 178.670429,164.452728 C179.455112,165.005293 180.329114,165.629938 181.270187,166.314053 C183.9595,168.269057 186.649112,170.309996 189.161785,172.336787 C190.436696,173.365166 191.635197,174.365617 192.744215,175.330882 C194.774572,177.098061 196.471963,178.717859 197.783787,180.164284 C198.11636,180.044978 198.512357,179.909153 198.975775,179.757027 C200.588295,179.227686 202.695319,178.605234 205.355874,177.893059 C212.933611,175.864657 223.430532,173.519543 237.317872,170.885812 C237.860484,170.782906 238.383781,171.139359 238.486688,171.681972 C238.589594,172.224584 238.233141,172.747881 237.690528,172.850788 C223.849118,175.475807 213.399664,177.810318 205.873026,179.825041 C203.24705,180.52796 201.175401,181.139961 199.599563,181.657261 C199.052539,181.836832 198.607407,181.991326 198.256866,182.120253 C198.052634,182.195367 197.92827,182.243959 197.876485,182.265515 C197.478426,182.431205 197.018988,182.323103 196.736573,181.997302 C195.441761,180.503576 193.645205,178.766543 191.43116,176.839486 C190.342019,175.891522 189.162478,174.906897 187.906114,173.89348 C185.422209,171.889893 182.758345,169.868493 180.094182,167.931771 C179.161537,167.253783 178.29566,166.634944 177.518912,166.087967 C177.247356,165.89674 177.006444,165.728228 176.798971,165.584017 C176.674998,165.497845 176.589368,165.438677 176.546886,165.40949 C176.091699,165.096723 175.976244,164.474174 176.28901,164.018986 C176.601777,163.563799 177.224326,163.448344 177.679514,163.76111 Z M159.309025,163.605436 C159.365121,163.651879 159.472808,163.741412 159.628651,163.871564 C159.88776,164.087957 160.188148,164.340019 160.526379,164.625279 C161.492111,165.439764 162.567947,166.357341 163.726422,167.358258 C167.036773,170.218381 170.347352,173.174215 173.439018,176.068389 C174.542083,177.100992 175.599481,178.109439 176.605296,179.089508 C176.943335,179.418894 177.275221,179.744759 177.60076,180.066965 C177.993288,180.455475 177.996545,181.088631 177.608035,181.48116 C177.219525,181.873688 176.586369,181.876945 176.19384,181.488435 C175.872055,181.169944 175.543886,180.847729 175.209535,180.521936 C174.213643,179.551537 173.165853,178.552253 172.072207,177.528467 C169.001986,174.654368 165.710544,171.71562 162.418873,168.871636 C161.266641,167.876114 160.19682,166.963667 159.236962,166.154136 C158.901237,165.87099 158.603316,165.620998 158.346643,165.406639 C158.193016,165.278339 158.087513,165.190621 158.033575,165.145964 C157.60817,164.793758 157.54883,164.16338 157.901036,163.737975 C158.253242,163.31257 158.88362,163.25323 159.309025,163.605436 Z M325.569494,165.496759 C325.627893,166.045948 325.230029,166.538495 324.680841,166.596894 L313.160841,167.821894 C312.611652,167.880293 312.119105,167.482429 312.060706,166.933241 C312.002307,166.384052 312.400171,165.891505 312.949359,165.833106 L324.469359,164.608106 C325.018548,164.549707 325.511095,164.947571 325.569494,165.496759 Z M239.58478,139.632679 C240.12117,139.764222 240.449364,140.305689 240.317821,140.84208 C240.294589,140.936811 240.249005,141.110408 240.179511,141.357636 C240.065461,141.763376 239.924394,142.232229 239.75475,142.758962 C239.272252,144.257075 238.656741,145.923538 237.895614,147.716476 C235.723046,152.834256 232.817034,157.951063 229.074624,162.730238 C228.255183,163.776691 227.40223,164.797161 226.51509,165.789416 C226.146984,166.201139 225.514807,166.236497 225.103084,165.86839 C224.691361,165.500284 224.656003,164.868107 225.02411,164.456384 C225.881955,163.496894 226.707036,162.509769 227.499964,161.497175 C231.126629,156.865809 233.946944,151.899895 236.05463,146.934953 C236.791592,145.198938 237.386404,143.588517 237.851049,142.145836 C238.012903,141.643291 238.146761,141.198397 238.25413,140.816425 C238.317489,140.591025 238.3574,140.439034 238.375379,140.36572 C238.506922,139.82933 239.048389,139.501136 239.58478,139.632679 Z M67.823969,160.258565 C68.5475859,160.322053 69.3090879,160.399051 70.0940101,160.486634 C70.9074043,160.577394 71.7027233,160.674589 72.4476908,160.771803 C72.8953074,160.830214 73.2274113,160.875758 73.4115504,160.902012 C73.9583058,160.979967 74.3383434,161.486395 74.2603882,162.03315 C74.1824329,162.579906 73.6760049,162.959943 73.1292496,162.881988 C72.9525912,162.856801 72.628243,162.812321 72.1888958,162.754988 C71.4555904,162.659296 70.6724106,162.563585 69.8722232,162.474298 C69.1021156,162.388368 68.3560329,162.312929 67.6491665,162.250911 C65.2428981,162.039792 63.4711455,162.006746 62.8729925,162.177561 C62.3419372,162.329214 61.7884926,162.021648 61.6368393,161.490593 C61.4851861,160.959537 61.7927522,160.406093 62.3238075,160.254439 C63.2599977,159.987092 65.1266178,160.021907 67.823969,160.258565 Z M228.589874,138.977936 C229.103866,139.180002 229.356731,139.760482 229.154664,140.274474 C229.130766,140.335265 229.085054,140.449495 229.018144,140.613613 C228.907543,140.884901 228.776984,141.198955 228.627082,141.552228 C228.199775,142.559254 227.702519,143.680407 227.140187,144.887341 C225.533197,148.336429 223.725076,151.786081 221.753192,155.010806 C220.144286,157.641935 218.491799,160.011479 216.804242,162.056142 C216.452689,162.482087 215.822403,162.542394 215.396458,162.190842 C214.970513,161.839289 214.910206,161.209003 215.261758,160.783058 C216.884362,158.817093 218.48412,156.523158 220.046915,153.967437 C221.975705,150.813185 223.749922,147.428217 225.327301,144.042685 C225.879498,142.857502 226.367416,141.757404 226.785973,140.770999 C226.932123,140.426571 227.059056,140.121238 227.166142,139.858572 C227.229845,139.702317 227.272453,139.595846 227.293336,139.542726 C227.495402,139.028734 228.075882,138.775869 228.589874,138.977936 Z M212.786603,144.528839 C213.329643,144.629467 213.688289,145.151263 213.587661,145.694303 C213.484865,146.249043 213.109671,147.3419 212.289862,149.06197 C210.95842,151.855516 208.836167,155.449029 205.747814,159.930541 C205.434425,160.3853 204.811718,160.499903 204.356959,160.186514 C203.9022,159.873125 203.787597,159.250418 204.100986,158.795659 C207.132383,154.396796 209.201505,150.893247 210.484438,148.20148 C210.92608,147.274855 211.237894,146.519264 211.442118,145.924404 C211.556819,145.590306 211.608966,145.395587 211.621139,145.329897 C211.721767,144.786857 212.243563,144.428211 212.786603,144.528839 Z" id="Skin-Shadows" fill="#0f2900"/></g><g id="Object/Holding" transform="translate(221.900000, 249.200000) scale(1 1)"><g id="Object/Holding/Plant" stroke="none" stroke-width="1" fill="none" fill-rule="evenodd"><g id="Plant" transform="translate(7.000000, 6.000000)"><path d="M103.8031,84.879 C98.9341,75.501 100.7211,59.199 137.9571,42.507 C175.1931,25.816 184.9851,36.868 187.2621,41.993 C191.3711,51.238 190.0871,65.106 165.4341,78.459 C140.7821,91.813 110.7371,98.233 103.8031,84.879" id="Fill-6" fill="#286c00"/><path d="M12.3177,53.9083 C17.2487,62.0613 23.7217,69.2123 31.5947,74.5783 C39.2857,79.8203 49.0817,83.9533 57.4997,79.5143 C74.3357,70.6373 57.8047,32.0673 57.8047,32.0673 C57.8047,32.0673 37.5477,-9.6227 11.2767,2.0683 C-9.7733,11.4363 3.4697,39.2783 12.3177,53.9083" id="Fill-1" fill="#949494"/><path d="M87.6244,85.9063 C94.1214,87.5483 115.9664,85.0243 122.3954,49.8213 C128.8224,14.6193 117.4964,6.9663 109.2314,5.7413 C100.9674,4.5173 84.0874,6.5733 77.3534,39.9393 C70.6184,73.3043 81.0344,84.2413 87.6244,85.9063" id="Fill-4" fill="#949494"/><path d="M24.9610075,24.1763673 C25.0028887,24.2261506 25.0832253,24.3223411 25.2007774,24.4641429 C25.3953125,24.6988085 25.6245815,24.9774914 25.8873446,25.2993957 C26.636398,26.2170417 27.5045373,27.2980098 28.4818439,28.535935 C31.2711928,32.06912 34.378074,36.1536291 37.723142,40.7385792 C47.2777828,53.834741 56.8316167,68.3206961 65.7498319,83.7904407 C70.1396844,91.4051815 74.2723465,99.0886173 78.1041421,106.812974 C78.4520408,107.514288 78.1655408,108.364843 77.4642263,108.712742 C76.7629119,109.060641 75.9123566,108.774141 75.5644579,108.072826 C71.7596707,100.402915 67.654889,92.7713147 63.2937397,85.2063631 C54.4295548,69.8303406 44.9308173,55.4279253 35.4328866,42.4094938 C32.1095546,37.8543362 29.02435,33.7983246 26.2566989,30.2926235 C25.2890556,29.0669385 24.4305556,27.997973 23.6911268,27.0921177 C23.4329211,26.7757966 23.2082031,26.5026456 23.0182137,26.2734634 C22.905051,26.1369565 22.829097,26.0460134 22.7915925,26.0014327 C22.2876146,25.4023653 22.3646999,24.5081704 22.9637673,24.0041925 C23.5628347,23.5002146 24.4570296,23.5772999 24.9610075,24.1763673 Z M104.437138,28.2316391 C105.183805,28.4669331 105.598355,29.2629701 105.363061,30.0096375 C105.323855,30.1340517 105.247655,30.3766116 105.136929,30.7302433 C104.952235,31.3201091 104.737947,32.0069035 104.496533,32.7835522 C103.806622,35.0030503 103.037799,37.4971074 102.209805,40.2091175 C99.8441569,47.9575524 97.4785455,55.8990149 95.2709951,63.5802209 C94.7178837,65.5047806 94.1807186,67.3924087 93.6610413,69.2386797 C88.9689896,85.9082522 85.9755852,98.206851 85.3436925,104.164117 C85.2611167,104.942613 84.5630797,105.506768 83.7845832,105.424192 C83.0060868,105.341617 82.4419317,104.64358 82.5245075,103.865083 C83.179886,97.6864007 86.1922889,85.3097456 90.9320853,68.4705494 C91.4531998,66.6191727 91.9917789,64.7265754 92.5462886,62.7971503 C94.7585636,55.099505 97.1284795,47.1435923 99.4983592,39.3812956 C100.327799,36.6645496 101.098023,34.1659494 101.789307,31.9420349 C102.031311,31.1634891 102.24618,30.47483 102.43145,29.8831264 C102.542701,29.5278165 102.61942,29.2836054 102.659139,29.1575625 C102.894433,28.4108951 103.69047,27.9963451 104.437138,28.2316391 Z M167.833704,52.3115195 C167.99231,53.0781483 167.499409,53.8281989 166.732781,53.9868043 C166.59101,54.0161348 166.306564,54.0783179 165.888986,54.1748274 C165.186855,54.3371019 164.370623,54.536659 163.449839,54.7749666 C160.81257,55.4575159 157.871225,56.3127455 154.702261,57.3522895 C145.648046,60.3224253 136.594828,64.1696881 128.155328,68.9831008 C112.182058,78.0933502 100.338025,89.555351 94.2956492,103.596034 C93.9861854,104.315136 93.1523681,104.647213 92.4332661,104.337749 C91.7141642,104.028285 91.3820869,103.194468 91.6915508,102.475366 C98.0109839,87.7908833 110.287852,75.9100089 126.750789,66.5204811 C135.370527,61.6042708 144.595062,57.6842053 153.818601,54.6585245 C157.04685,53.5995328 160.045775,52.7275611 162.739518,52.0303955 C163.684588,51.7858029 164.524777,51.5803885 165.250596,51.4126392 C165.689788,51.3111344 165.995561,51.244289 166.158419,51.2105957 C166.925048,51.0519903 167.675099,51.5448906 167.833704,52.3115195 Z" id="Combined-Shape" fill="#286c00"/><path d="M167.833704,52.3115195 C167.99231,53.0781483 167.499409,53.8281989 166.732781,53.9868043 C166.59101,54.0161348 166.306564,54.0783179 165.888986,54.1748274 C165.186855,54.3371019 164.370623,54.536659 163.449839,54.7749666 C160.81257,55.4575159 157.871225,56.3127455 154.702261,57.3522895 C145.648046,60.3224253 136.594828,64.1696881 128.155328,68.9831008 C119.04343,74.180012 111.275224,80.142205 105.16116,86.9118049 C104.639891,86.2943102 104.186219,85.6168382 103.8031,84.879 C103.727096,84.7326117 103.652714,84.5845363 103.580063,84.4347986 C109.824583,77.6659083 117.647753,71.7123377 126.750789,66.5204811 C135.370527,61.6042708 144.595062,57.6842053 153.818601,54.6585245 C157.04685,53.5995328 160.045775,52.7275611 162.739518,52.0303955 C163.684588,51.7858029 164.524777,51.5803885 165.250596,51.4126392 C165.689788,51.3111344 165.995561,51.244289 166.158419,51.2105957 C166.925048,51.0519903 167.675099,51.5448906 167.833704,52.3115195 Z" id="Stroke-13-Copy" fill="#949494"/><path d="M138.3261,125.6293 L137.8441,135.1573 C135.5261,135.5633 133.2411,135.9823 131.0121,136.4083 C134.2531,132.2993 136.5921,128.7543 138.3261,125.6293 L138.3261,125.6293 Z M106.1317,102.2766 C106.0917,102.2886 106.0527,102.2946 106.0107,102.3086 C103.3967,103.1666 90.5177,115.1126 85.5957,125.8526 C85.5957,125.8526 81.3847,127.2756 75.7327,128.9726 C64.8947,121.1786 61.0207,121.2346 59.0617,120.9446 C57.7157,120.7446 54.4537,121.8676 54.2427,123.8776 C54.0917,125.3006 55.9187,127.7546 55.9187,127.7546 C55.9187,127.7546 51.5397,124.7726 47.8757,125.6186 C46.1427,126.0176 44.2857,126.9036 44.3617,128.5376 C44.4187,129.7586 47.3617,133.2086 47.3347,133.1856 C46.9487,132.9946 40.6687,129.4766 37.8397,132.3056 C37.4837,132.6616 37.3387,133.1096 37.3187,133.6036 C36.2627,133.5496 35.1647,133.4936 34.0447,133.4326 L34.0447,133.4326 L29.4787,103.3026 Z M115.2309,102.1545 C115.2019,102.1955 115.1719,102.2305 115.1429,102.2725 C113.3249,104.8115 111.9269,107.3955 109.2759,109.8095 C109.2759,109.8095 110.0569,103.1455 107.4789,102.2575 L107.4789,102.2575 Z M137.653,101.8545 C137.255,102.4095 136.83,103.1445 136.389,104.1485 C136.389,104.1485 136.304,103.1345 136.007,101.8765 L136.007,101.8765 Z M126.3712,102.0046 C125.5902,103.1476 125.0922,104.0416 125.0922,104.0416 C125.0922,104.0416 125.3102,103.1666 125.3382,102.0196 L125.3382,102.0196 Z" id="Combined-Shape" fill="#c8947f"/></g></g></g></g></g></g></svg>