<svg viewBox="181.6875 96.70000000000005 605.625 834.0374999999999" xmlns="http://www.w3.org/2000/svg" xmlns:xlink="http://www.w3.org/1999/xlink" overflow="visible" width="605.625px" height="834.0374999999999px"><defs><path d="M275.684414,0.876652922 C298.838059,1.54914435 329.906472,9.13626937 355.7471,15.2297529 L355.731944,15.2730262 C397.943463,24.6870841 452.971125,41.5664426 466.9347,60.6071529 C489.4187,91.2671529 484.8307,126.127153 444.6317,165.644153 C415.2977,194.481153 386.9717,210.585153 372.4107,216.074153 C363.858947,207.086013 354.27259,195.452866 345.166172,184.184251 L345.5431,187.063753 C345.8052,205.151453 195.8084,217.517053 146.0664,197.369053 L149.907924,169.277823 C138.376043,183.58138 125.055547,200.37944 113.5941,212.425753 C99.0331,206.935753 70.7081,190.832753 41.3741,161.994753 C1.1741,122.477753 -11.4139,87.6187529 11.0701,56.9587529 C23.1971,40.4207529 69.0261,26.2177529 108.6751,16.6397529 C108.048715,16.8278037 108.709162,16.7365391 110.005927,16.5033439 C127.558487,12.2104677 191.200137,-1.57717031 275.684414,0.876652922 Z M162.310363,78.5613735 L87.8171,104.583753 C87.8171,104.583753 122.608609,134.324697 151.917069,154.584908 L162.310363,78.5613735 Z M332.466363,87.1363735 L341.108096,153.169863 C367.388419,133.830342 393.927617,109.395078 395.144211,108.27232 L395.1877,108.232153 L332.466363,87.1363735 Z" id="mastercharactersitting-path-1"/></defs><g id="Master/Character/Sitting" stroke="none" stroke-width="1" fill="none" fill-rule="evenodd"><g id="Bottom/Sitting" transform="translate(15.000000, 331.000000) scale(1 1)"><g id="Bottom/Sitting/Crossed" stroke="none" stroke-width="1" fill="none" fill-rule="evenodd"><g id="Legs" transform="translate(246.000000, 109.000000)"><path d="M75.5,14 L173,14 C174.104569,14 175,14.8954305 175,16 L175,161 C175,162.104569 174.104569,163 173,163 L75.5,163 C34.3547861,163 1,129.645214 1,88.5 C1,47.3547861 34.3547861,14 75.5,14 Z" id="Rectangle" fill="#348c00"/><path d="M457.0754,373.4699 L349.2674,140.0609 C349.2674,116.8949 348.3064,104.4119 332.0364,90.2519 C312.8824,73.5799 232.9984,34.7589 211.8254,25.7489 C190.5404,16.6909 191.473654,1.0009 191.473654,1.0009 L23.6584,1.0009 C23.6584,1.0009 -73.0828187,163.32922 128.262581,163.32922 L215.1884,164.3289 L118.9084,355.6939 L220.4684,414.9369 L293.4544,257.9889 L336.2994,396.5969 L457.0754,373.4699 Z" id="Pants" fill="#348c00"/><g id="Shoes" transform="translate(101.937905, 358.461700)"><g id="Shoe-2" transform="translate(243.697495, 10.099725)"><path d="M13.003,73.5388746 L0,25.8578746 L100.484,6.80087455 L105.67,20.6968746 C108.867,29.2658746 116.969,35.0778746 126.113,35.2038746 C139.919,35.3938746 158.631,37.9318746 160.256,50.1138746 L25.186,80.8478746 C19.822,82.0678746 14.45,78.8448746 13.003,73.5388746" id="Fill-3" fill="#fa9c4f"/><path d="M130.037179,27.0360105 C134.346143,26.9423929 137.005403,22.2954537 134.903908,18.5325084 C133.202681,15.4874923 129.19313,14.6633871 126.428547,16.7904476 L112.616869,27.4130477 L130.037179,27.0360105 Z M108.981253,27.6861015 L125.209107,15.2052141 C128.940955,12.3339428 134.353294,13.4463705 136.649975,17.5571878 C139.486665,22.636576 135.897107,28.9091682 130.080538,29.0355404 L109.612538,29.4785404 C108.646919,29.4994398 108.215653,28.2749264 108.981253,27.6861015 Z M118.717795,10.3078678 C120.671095,6.46595059 117.831762,1.92602561 113.522767,2.00092024 C110.034597,2.06220581 107.414341,5.20552846 107.98761,8.67928742 L110.191468,25.3852665 L118.717795,10.3078678 Z M108.59949,28.6095617 L106.00957,8.97304909 C105.242148,4.32715808 108.779259,0.0839528628 113.487822,0.00122556622 C119.304678,-0.0998772189 123.137286,6.02823497 120.47968,11.2532788 L110.46138,28.9709788 C109.988934,29.8065148 108.725026,29.5611739 108.59949,28.6095617 Z" id="Combined-Shape" fill="#eeeeee"/></g><g id="Shoe-1"><path d="M22.249395,-8.52651283e-14 L107.839395,50.11 L102.704395,64.024 C99.537395,72.604 101.886395,82.294 108.734395,88.356 C119.074395,97.506 131.600395,111.638 124.884395,121.93 L5.46439497,58.108 C0.603394972,55.534 -1.36560503,49.587 0.999394972,44.621 L22.249395,-8.52651283e-14 Z" id="Fill-10" fill="#fa9c4f"/><path d="M120.129739,68.9868288 C124.395554,68.3689154 126.468859,63.4334634 123.924124,59.9550914 C121.863331,57.1392705 117.783953,56.8094112 115.309433,59.247337 L103.531206,71.2017837 L120.129739,68.9868288 Z M125.538171,58.7740527 C128.973374,63.4695953 126.174564,70.132095 120.405369,70.9677132 L111.90715,72.1017675 L121.096141,72.6079217 C125.797636,72.8675839 129.172715,77.2405408 128.231824,81.8542362 C127.069126,87.5551348 120.256077,89.9675736 115.765212,86.2682682 L99.9632124,73.2522682 C99.2757649,72.6860224 99.6235099,71.6135319 100.438014,71.491593 L113.895253,57.8331678 C117.249827,54.5279928 122.756518,54.9732649 125.538171,58.7740527 Z M103.587601,73.6465363 L117.036799,84.7245496 C120.363708,87.4650581 125.410811,85.6779247 126.272163,81.4545786 C126.96917,78.0367743 124.468879,74.797245 120.985996,74.6048864 L103.587601,73.6465363 Z" id="Combined-Shape" fill="#eeeeee"/></g></g><path d="M150.0579,0.0009 C150.361952,0.0009 150.649488,0.139232223 150.839246,0.376801658 C150.986043,0.560586298 151.229959,0.891412194 151.5386,1.35297095 C152.047339,2.1137667 152.554983,2.97181091 153.02891,3.91134482 C155.10121,8.01955972 155.889058,12.2722405 154.598975,16.3020346 C154.518389,16.5537581 154.429762,16.803416 154.333002,17.0509272 C167.694369,16.7435015 181.881896,16.2081202 196.917076,15.4233594 C197.46861,15.3945721 197.939053,15.818342 197.969225,16.369876 C197.996628,16.92141 197.572858,17.3918533 197.021324,17.4206406 C192.708004,17.6457742 188.464188,17.8504147 184.289301,18.0350498 C184.36813,18.1495871 184.451953,18.2698219 184.539855,18.3931285 C185.293054,19.449701 186.182943,20.507246 187.201495,21.4919638 C190.207402,24.39802 193.66855,26.0651334 197.543092,25.9099047 C200.81737,25.7784737 203.685106,25.4672815 206.14682,25.0317357 C207.307574,24.8263661 208.298696,24.6071299 209.120308,24.3890015 C209.603308,24.2607707 209.916971,24.1636003 210.061398,24.1124568 C210.582005,23.928103 211.153489,24.2006904 211.337843,24.7212978 C211.522197,25.2419053 211.24961,25.8133893 210.729002,25.9977432 C210.53408,26.0667675 210.168923,26.1798906 209.633506,26.3220373 C208.757759,26.554538 207.711679,26.7859309 206.495264,27.0011485 C203.945205,27.452325 200.987865,27.7732406 197.623232,27.9082984 C193.13112,28.0882693 189.177034,26.1837251 185.811365,22.9298579 C184.699029,21.854471 183.731586,20.7047609 182.911299,19.5540783 C182.484594,18.9555053 182.173362,18.466645 181.980117,18.1340795 C171.949347,18.563927 162.320589,18.8760401 153.085862,19.0786597 C152.974166,19.1248471 152.852431,19.1505737 152.726935,19.1528374 C152.65229,19.1541837 152.65229,19.1541837 152.299732,19.1602065 C151.951955,19.1660592 151.548511,19.1725797 151.094001,19.179601 C149.795632,19.1996584 148.348225,19.2197145 146.788576,19.2384331 C144.059284,19.2711894 141.328644,19.2959122 138.66372,19.3101652 C138.052144,19.316378 137.441317,19.3219781 136.83237,19.3270695 L136.835481,19.3022641 C136.029046,31.122948 144.037987,41.7805349 155.654435,44.3966178 C184.191351,50.8211903 215.233099,58.4860907 243.406083,66.5731409 C284.433489,78.3500508 311.753936,88.886615 320.317035,97.5752588 C332.87589,110.318286 341.170072,120.939515 346.022004,129.549904 C347.734519,132.588987 348.893162,135.165889 349.599931,137.294145 C350.035757,138.606526 350.223267,139.496449 350.264183,139.976227 C350.311112,140.526515 349.90306,141.010654 349.352773,141.057583 C348.802485,141.104512 348.318346,140.69646 348.271417,140.146173 C348.266397,140.087315 348.242473,139.926221 348.186602,139.661055 C348.087414,139.190312 347.930186,138.612031 347.701857,137.924473 C347.036828,135.921909 345.930799,133.462023 344.279596,130.531746 C339.520903,122.086822 331.33421,111.603239 318.892566,98.9791424 C310.684722,90.6509613 283.460636,80.1515601 242.854267,68.4955091 C214.725111,60.4210397 183.717539,52.7645778 155.215097,46.3477669 C142.696585,43.5285345 134.045417,32.0793773 134.828767,19.3411542 C119.758171,19.4410671 105.852577,19.2258541 93.0693437,18.7321663 C93.0584454,19.467346 93.0049126,20.3835987 92.8854732,21.427307 C92.6485699,23.4974621 92.2026316,25.5515543 91.4939644,27.4813411 C89.8804882,31.875033 87.121618,35.0660067 82.9813006,36.4463924 C71.838999,40.1601382 60.59179,39.1283183 50.1826208,35.1667242 C48.1432409,34.3905628 46.3061792,33.5584011 44.6995687,32.724931 C44.1941144,32.4627137 43.7434168,32.2166974 43.3500103,31.9917688 C41.5263951,40.7633809 40.4277904,49.3709565 40.3088921,57.4636904 C40.0408513,75.707712 44.8529583,89.2099298 55.8434174,96.4276234 C65.7940683,102.962183 80.6455681,108.105675 100.719754,112.395213 C116.622339,115.793345 133.723895,118.360484 161.22639,121.800602 C163.326159,122.06325 165.501912,122.333468 168.233381,122.67126 C169.325357,122.806301 173.992977,123.382739 175.220735,123.5346 C206.510387,127.404791 221.955935,129.649154 237.133665,132.921157 C256.851827,137.171984 269.998145,142.315348 277.00097,149.168838 C285.619539,157.604189 295.932039,178.007565 307.661559,208.466526 C314.246331,225.565718 321.159501,245.540639 328.291357,267.815362 C336.869544,294.607371 345.321492,323.310289 353.281289,352.012825 C356.067139,362.058427 358.592526,371.386596 360.811661,379.758302 C361.588427,382.68866 362.271452,385.290242 362.855011,387.533167 C363.0593,388.318356 363.236574,389.002674 363.38612,389.582384 C363.475908,389.930445 363.536534,390.166427 363.567285,390.286596 C363.704198,390.821641 363.381449,391.366371 362.846404,391.503285 C362.311359,391.640198 361.766629,391.317449 361.629715,390.782404 C361.599284,390.663482 361.53898,390.428756 361.449519,390.081961 C361.300316,389.503578 361.123388,388.820598 360.91945,388.036757 C360.336647,385.79674 359.654397,383.198109 358.878427,380.270755 C356.661173,371.906144 354.137762,362.585273 351.354026,352.547294 C343.400722,323.868169 334.955892,295.189426 326.386606,268.425219 C319.265627,246.184468 312.364567,226.244535 305.795166,209.18526 C294.171552,179.001312 283.940787,158.759649 275.602055,150.598186 C268.946602,144.08466 256.084602,139.052532 236.712189,134.876242 C221.613158,131.621205 206.204251,129.382167 174.975228,125.519474 C173.747713,125.367644 169.080122,124.791209 167.987918,124.65614 C165.255603,124.318244 163.078989,124.047918 160.978157,123.785138 C133.421749,120.338275 116.276215,117.764535 100.301821,114.351058 C80.0061126,110.014185 64.9475698,104.798988 54.7455669,98.0993663 C43.0716637,90.4328388 38.0320473,76.2922562 38.3091079,57.4343096 C38.5044973,44.135256 41.2901542,29.5356788 45.5842172,15.0844478 C44.7225467,14.9775489 43.870478,14.8686642 43.0267358,14.7580112 C35.3789133,13.7550335 29.0729303,12.6795929 24.0243621,11.6029784 C22.2523896,11.2251026 20.7631368,10.8736678 19.5460544,10.5575831 C19.1176669,10.4463279 18.7533685,10.3472516 18.4518409,10.2614678 C18.2677748,10.2091016 18.1438443,10.1722553 18.078731,10.1520425 C17.5512756,9.98830717 17.2564222,9.4279864 17.4201575,8.90053101 C17.5838928,8.37307561 18.1442136,8.07822222 18.671669,8.24195752 C18.7215569,8.25744398 18.8302667,8.28976493 18.9991183,8.33780273 C19.2857866,8.4193591 19.6352375,8.51439738 20.0487906,8.62179996 C21.2372528,8.93045178 22.6979663,9.27515191 24.4414859,9.64696001 C29.437181,10.7122993 35.690816,11.7788124 43.2867999,12.7749916 C44.2485053,12.9011149 45.2211106,13.0249341 46.2046597,13.1464117 C46.4378113,12.7702276 46.9025909,12.5827642 47.3456872,12.7181389 C47.6692722,12.8170005 47.9062238,13.0651 48.0041371,13.3639242 C66.5093984,15.5669178 88.7991342,16.9545144 115.15348,17.2877063 L115.1549,1.0009 C115.1549,0.44861525 115.602615,0.0009 116.1549,0.0009 L150.0579,0.0009 Z M215.29236,163.334687 L254.353425,167.405694 C261.325916,168.132834 267.210771,172.912225 269.351898,179.586817 L294.406898,257.683817 C294.575611,258.209701 294.286067,258.772784 293.760183,258.941498 C293.234299,259.110211 292.671216,258.820667 292.502502,258.294783 L267.447494,180.197756 C265.548656,174.27846 260.329572,170.039775 254.14604,169.394913 L238.679933,167.7829 L140.230785,367.20697 C139.986305,367.702195 139.386656,367.905464 138.89143,367.660985 C138.396205,367.416505 138.192936,366.816856 138.437415,366.32163 L236.558933,167.5619 L215.08504,165.323913 C214.53573,165.266663 214.136837,164.774949 214.194087,164.22564 C214.251337,163.67633 214.743051,163.277437 215.29236,163.334687 Z M47.5973967,15.3302504 L47.3576831,16.1397468 C46.0018382,20.7406875 44.8018605,25.3544895 43.793408,29.9315607 C43.8795717,29.9848661 44.0207297,30.0696083 44.215911,30.1825837 C44.614216,30.4131319 45.083649,30.6710708 45.6205625,30.9496083 C47.1614688,31.7489927 48.9290604,32.5496855 50.8940149,33.2975216 C60.9070348,37.1083465 71.6995479,38.0984525 82.3488145,34.5490359 C85.8411961,33.3846727 88.1954823,30.6616503 89.6165512,26.7919069 C90.2654123,25.0249793 90.6784157,23.1225928 90.8984419,21.1999161 C90.9794355,20.4921623 91.0293761,19.8208093 91.0540831,19.2001231 C91.0621193,18.998238 91.0670573,18.814457 91.0695535,18.6503483 C74.7485069,17.9786286 60.2883922,16.8457918 47.5973967,15.3302504 Z M149.556549,2.0009 L117.1549,2.0009 L117.1549,16.9789285 C120.276958,17.2149418 125.982807,17.3223843 133.523144,17.3240105 C135.203055,17.3243614 136.931,17.3194605 138.687611,17.3100076 C143.071879,17.2661565 147.551306,17.1960688 152.128441,17.0989386 L152.099521,17.1632727 C152.336443,16.6824702 152.534203,16.1920324 152.694202,15.6922479 C153.796675,12.2484863 153.10149,8.49598505 151.24323,4.81209242 C150.807958,3.94919083 150.341459,3.16069189 149.876056,2.46470297 C149.756409,2.28577641 149.649021,2.13069782 149.556549,2.0009 Z" id="Pants-details" fill="#eeeeee"/></g></g></g><g id="Head" transform="translate(247.000000, 64.000000) scale(1 1)"><g id="Head/Short" stroke="none" stroke-width="1" fill="none" fill-rule="evenodd"><g id="Short" transform="translate(22.000000, 41.000000)"><path d="M76,0 C117.973641,0 152,34.7151217 152,77.5383946 C152,89.91717 149.156776,101.618433 144.100247,111.999511 L7.89975278,111.999511 C2.84322441,101.618433 0,89.91717 0,77.5383946 C0,34.7151217 34.026359,0 76,0 Z" id="Combined-Shape" fill="#348c00"/><path d="M31.9097,101.9386 C36.5067,101.9386 40.6157,100.2416 43.3757,97.5686 C44.3737,96.6016 45.9167,96.5046 46.9737,97.4086 C54.6917,104.0156 64.4867,108.7156 75.4087,110.6396 C76.8117,110.8876 77.8037,112.1516 77.7217,113.5746 L76.1617,141 L102.6007,141 L101.3767,119.4376 C101.0477,113.6996 105.4087,108.1866 111.0757,107.2286 C130.7097,103.9056 142.7377,88.4516 142.5407,65.7796 C142.2657,34.2036 113.6167,14.7756 82.0627,14.7756 C50.5087,14.7756 29.4267,32.6986 29.4267,60.7736 C29.4267,65.9916 30.3227,71.0196 31.9667,75.7566 C32.2037,76.4396 31.7257,77.1546 31.0017,77.1666 C26.8927,77.2386 16.8007,78.0386 16.8524763,89.5536 C16.8847,96.3936 23.5947,101.9386 31.9097,101.9386 Z" id="Fill-3" fill="#fbc4ad"/><path d="M31.9155,76.8412 C31.9155,76.8412 57.1995,65.7752 58.0675,35.8832 C58.0675,35.8832 104.7105,49.5792 131.8475,36.0972 C131.8475,36.0972 122.8785,26.7352 119.1595,24.1682 C111.9425,19.1872 87.3465,9.4022 87.3465,9.4022 L42.5885,17.4212 L23.5665,40.9182 L31.9155,76.8412 Z" id="Fill-14" fill="#348c00"/><path d="M35.892,94.4769 C36.323,93.2799 37.89,92.9979 38.711,93.9709 L38.711,93.9709 L55,113.2559 C55.821,114.2279 55.282,115.7249 54.029,115.9499 L54.029,115.9499 L29.183,120.4149 C27.931,120.6399 26.904,119.4239 27.335,118.2269 L27.335,118.2269 Z M128.0344,99.9881 L136.9374,115.8431 C137.5744,116.9451 136.7784,118.3231 135.5054,118.3231 L135.5054,118.3231 L110.2614,118.3231 C108.9884,118.3231 108.1934,116.9451 108.8294,115.8431 L108.8294,115.8431 L114.1564,106.6171 C119.2134,105.4851 124.1924,103.0491 128.0344,99.9881 L128.0344,99.9881 Z" id="Accessory" fill="#fa9c4f"/></g></g></g><g id="Face" transform="translate(321.000000, 155.000000) scale(1 1)"><g id="Face/Only Smile" stroke="none" stroke-width="1" fill="none" fill-rule="evenodd"><path d="M24.5178251,25.3715593 C24.3904907,24.5529767 24.9508581,23.7861595 25.7694407,23.6588251 C26.5880233,23.5314907 27.3548405,24.0918581 27.4821749,24.9104407 C27.5129744,25.1084388 27.5820633,25.4981339 27.6939841,26.051842 C27.882572,26.9848478 28.1231015,28.0270441 28.4199855,29.1506295 C29.2678003,32.3592641 30.3940077,35.5662904 31.8295492,38.5472017 C35.6269147,46.4324561 40.8201229,51.2494004 47.6062417,51.7175572 C54.197401,52.1722905 58.6042164,44.9809961 60.9687346,32.3435258 C61.7520252,28.157129 62.2504123,23.6629963 62.5176846,19.129946 C62.6153755,17.4730669 62.6761266,15.9048035 62.7069263,14.4583214 C62.7276059,13.4871166 62.7323787,12.7034287 62.7282811,12.1403069 C62.7273942,12.0381735 62.7273942,12.0381735 62.7271486,12.0211137 C62.7154878,11.1927687 63.3775412,10.5118094 64.2058863,10.4999969 C65.0342313,10.4884878 65.7151906,11.1505412 65.7268514,11.9788863 C65.7272265,12.0059185 65.7272265,12.0059185 65.7282017,12.1184779 C65.7325009,12.7093116 65.7275549,13.5214488 65.7062464,14.5221853 C65.6746732,16.0049985 65.6124741,17.6106399 65.5124835,19.3065218 C65.238315,23.9565357 64.726489,28.571852 63.9175626,32.8952626 C61.2957928,46.9076472 56.1445398,55.3137575 47.3997642,54.7104432 C39.3256144,54.1534285 33.3431099,48.604375 29.1266462,39.8488605 C27.6005062,36.6798207 26.4127809,33.2976137 25.5195281,29.917015 C25.2070384,28.7343686 24.953329,27.6350642 24.7534524,26.6462102 C24.6830565,26.2979391 24.6243147,25.9875973 24.5766216,25.7185852 C24.5473669,25.5535746 24.527968,25.4367639 24.5178251,25.3715593 Z" id="Stroke-1" fill="#348c00"/></g></g><g id="Body" transform="translate(64.000000, 26.000000) scale(1 1)"><defs><path d="M52.3136,35.579135 C24.2816,81.676135 4.8836,207.462135 2.2606,277.621135 C-0.3234,346.744135 -2.5224,369.424135 24.0216,375.641135 L20.9416,395.273135 C20.9416,395.273135 56.8156,403.737135 69.2736,403.737135 L71.7646,381.221135 C71.7646,381.221135 106.2666,390.699135 102.8016,283.649135 C99.3756,177.776135 99.183,197.520663 99.183,197.520663 C99.183,197.520663 215.052691,200.84399 264.887691,195.23699 C264.887691,195.23699 271.3276,255.415135 342.3426,228.005135 C413.3576,200.596135 464.4386,149.515135 464.4386,149.515135 C464.4386,149.515135 487.5286,127.397135 476.3156,106.217135 L498.1186,90.644135 C498.1186,90.644135 483.2306,63.754135 470.0866,50.153135 L445.1696,65.726135 C445.1696,65.726135 422.6146,34.117135 354.3786,106.794135 L319.2936,143.286135 C319.2936,143.286135 301.6456,4.00813497 195.6906,1.57413497 C181.7536,1.25413497 80.3456,-10.518865 52.3136,35.579135 Z" id="bodypointing-path-1"/></defs><g id="Body/Pointing" stroke="none" stroke-width="1" fill="none" fill-rule="evenodd"><g id="Body" transform="translate(126.000000, 210.000000)"><g id="Jumper" transform="translate(15.000000, 7.692465)"><mask id="bodypointing-mask-2" fill="#ffffff"><use xlink:href="#bodypointing-path-1" fill="#eeeeee"/></mask><use fill="#348c00" xlink:href="#bodypointing-path-1"/><g mask="url(#bodypointing-mask-2)"><g transform="translate(-62.000000, 5.307535) scale(1 1)" id="Patterns"><g id="Patterns/Pattern 7" stroke="none" stroke-width="1" fill="none" fill-rule="evenodd"><path d="M128.5,180 C138.717268,180 147,188.282732 147,198.5 C147,208.717268 138.717268,217 128.5,217 C118.282732,217 110,208.717268 110,198.5 C110,188.282732 118.282732,180 128.5,180 Z M128.5,187 C122.148725,187 117,192.148725 117,198.5 C117,204.851275 122.148725,210 128.5,210 C134.851275,210 140,204.851275 140,198.5 C140,192.148725 134.851275,187 128.5,187 Z M221.5,162 C231.717268,162 240,170.282732 240,180.5 C240,190.717268 231.717268,199 221.5,199 C211.282732,199 203,190.717268 203,180.5 C203,170.282732 211.282732,162 221.5,162 Z M21.5,161 C31.7172679,161 40,169.282732 40,179.5 C40,189.717268 31.7172679,198 21.5,198 C11.2827321,198 3,189.717268 3,179.5 C3,169.282732 11.2827321,161 21.5,161 Z M221.5,169 C215.148725,169 210,174.148725 210,180.5 C210,186.851275 215.148725,192 221.5,192 C227.851275,192 233,186.851275 233,180.5 C233,174.148725 227.851275,169 221.5,169 Z M21.5,168 C15.1487254,168 10,173.148725 10,179.5 C10,185.851275 15.1487254,191 21.5,191 C27.8512746,191 33,185.851275 33,179.5 C33,173.148725 27.8512746,168 21.5,168 Z M110.5,109 C120.717268,109 129,117.282732 129,127.5 C129,137.717268 120.717268,146 110.5,146 C100.282732,146 92,137.717268 92,127.5 C92,117.282732 100.282732,109 110.5,109 Z M110.5,116 C104.148725,116 99,121.148725 99,127.5 C99,133.851275 104.148725,139 110.5,139 C116.851275,139 122,133.851275 122,127.5 C122,121.148725 116.851275,116 110.5,116 Z M183.5,100 C193.717268,100 202,108.282732 202,118.5 C202,128.717268 193.717268,137 183.5,137 C173.282732,137 165,128.717268 165,118.5 C165,108.282732 173.282732,100 183.5,100 Z M183.5,107 C177.148725,107 172,112.148725 172,118.5 C172,124.851275 177.148725,130 183.5,130 C189.851275,130 195,124.851275 195,118.5 C195,112.148725 189.851275,107 183.5,107 Z M44.5,81 C54.7172679,81 63,89.2827321 63,99.5 C63,109.717268 54.7172679,118 44.5,118 C34.2827321,118 26,109.717268 26,99.5 C26,89.2827321 34.2827321,81 44.5,81 Z M253.5,81 C263.717268,81 272,89.2827321 272,99.5 C272,109.717268 263.717268,118 253.5,118 C243.282732,118 235,109.717268 235,99.5 C235,89.2827321 243.282732,81 253.5,81 Z M44.5,88 C38.1487254,88 33,93.1487254 33,99.5 C33,105.851275 38.1487254,111 44.5,111 C50.8512746,111 56,105.851275 56,99.5 C56,93.1487254 50.8512746,88 44.5,88 Z M253.5,88 C247.148725,88 242,93.1487254 242,99.5 C242,105.851275 247.148725,111 253.5,111 C259.851275,111 265,105.851275 265,99.5 C265,93.1487254 259.851275,88 253.5,88 Z M192.5,28 C202.717268,28 211,36.2827321 211,46.5 C211,56.7172679 202.717268,65 192.5,65 C182.282732,65 174,56.7172679 174,46.5 C174,36.2827321 182.282732,28 192.5,28 Z M110.5,28 C120.717268,28 129,36.2827321 129,46.5 C129,56.7172679 120.717268,65 110.5,65 C100.282732,65 92,56.7172679 92,46.5 C92,36.2827321 100.282732,28 110.5,28 Z M192.5,35 C186.148725,35 181,40.1487254 181,46.5 C181,52.8512746 186.148725,58 192.5,58 C198.851275,58 204,52.8512746 204,46.5 C204,40.1487254 198.851275,35 192.5,35 Z M110.5,35 C104.148725,35 99,40.1487254 99,46.5 C99,52.8512746 104.148725,58 110.5,58 C116.851275,58 122,52.8512746 122,46.5 C122,40.1487254 116.851275,35 110.5,35 Z M40.5,9 C50.7172679,9 59,17.2827321 59,27.5 C59,37.7172679 50.7172679,46 40.5,46 C30.2827321,46 22,37.7172679 22,27.5 C22,17.2827321 30.2827321,9 40.5,9 Z M40.5,16 C34.1487254,16 29,21.1487254 29,27.5 C29,33.8512746 34.1487254,39 40.5,39 C46.8512746,39 52,33.8512746 52,27.5 C52,21.1487254 46.8512746,16 40.5,16 Z M258.5,2 C268.717268,2 277,10.2827321 277,20.5 C277,30.7172679 268.717268,39 258.5,39 C248.282732,39 240,30.7172679 240,20.5 C240,10.2827321 248.282732,2 258.5,2 Z M258.5,9 C252.148725,9 247,14.1487254 247,20.5 C247,26.8512746 252.148725,32 258.5,32 C264.851275,32 270,26.8512746 270,20.5 C270,14.1487254 264.851275,9 258.5,9 Z" id="Pattern" fill="#348c00"/></g></g></g><g mask="url(#bodypointing-mask-2)"><g transform="translate(-62.000000, 223.307535)" id="Patterns"/></g><g mask="url(#bodypointing-mask-2)"><g transform="translate(218.000000, 5.307535)" id="Patterns"/></g><path d="M87.4450984,107.307527 C87.9971651,107.323448 88.4321235,107.783567 88.4166052,108.335633 L86.0167094,193.712276 C86.1418219,193.773656 86.2904775,193.843242 86.4635808,193.919904 C87.3319421,194.304478 88.4457202,194.693294 89.8263654,195.059089 C92.3662951,195.732031 95.4921963,196.243085 99.2572524,196.523423 C99.8080126,196.564432 100.221248,197.044155 100.180239,197.594915 C100.139231,198.145675 99.6595077,198.558911 99.1087476,198.517902 C95.2237398,198.228632 91.9762908,197.697707 89.3141479,196.992385 C86.756977,196.314875 85.1884642,195.620223 84.4452474,195.124678 C84.1587804,194.933674 83.9907204,194.608733 84.0003948,194.264564 L86.4173948,108.279437 C86.4329132,107.72737 86.8930317,107.292411 87.4450984,107.307527 Z M248.943698,116.067784 L265.865489,195.027439 C265.981221,195.567462 265.637265,196.099056 265.097242,196.214788 C264.557219,196.33052 264.025625,195.986564 263.909893,195.446541 L246.988102,116.486886 C246.87237,115.946863 247.216326,115.415269 247.756349,115.299537 C248.296372,115.183805 248.827966,115.527761 248.943698,116.067784 Z" id="Jumper-Details" fill="#eeeeee"/></g><path d="M35.9416,403.9653 L59.2276,409.0313 L84.2746,412.4293 L63.3476,487.9433 C63.3476,487.9433 58.4536,511.0753 57.7876,512.4073 C57.1206,513.7393 42.3296,514.7673 44.6606,498.7783 C44.6606,498.7783 38.1636,510.7323 34.3356,512.4363 C32.8136,513.1123 26.8106,516.2563 24.4786,504.9313 C24.4786,504.9313 19.2886,509.9793 16.0536,508.5283 C11.1366,506.3253 10.4146,504.1173 11.8646,497.0663 C11.8646,497.0663 -0.6544,502.7403 0.0266,485.4553 C0.5386,472.4713 22.9936,432.8723 22.9936,432.8723 C22.9936,432.8723 26.5036,413.9603 35.9416,403.9653 L35.9416,403.9653 Z M586.4776,0.0117 C588.8796,0.1197 591.5556,2.0327 591.3686,5.3067 C590.7416,16.2787 573.2676,24.3327 573.2676,24.3327 C573.2676,24.3327 576.8676,26.1327 578.0676,31.5317 C579.2966,37.0637 577.4676,41.2807 577.4676,41.2807 C577.4676,41.2807 581.2016,42.4257 581.9286,48.4847 C582.1966,50.7147 582.1476,54.8937 579.8586,56.9697 C579.8586,56.9697 586.9456,60.8807 582.7406,71.2947 C582.7406,71.2947 573.6416,89.1847 546.6796,86.9377 C546.6796,86.9377 530.9556,96.5687 513.1186,99.3367 C513.1186,99.3367 493.5896,65.2727 485.0866,58.8457 C485.0866,58.8457 483.9406,38.0227 512.4856,22.0097 C512.4856,22.0097 524.9566,14.5867 533.8166,14.6847 C536.7706,14.7177 539.0756,15.3217 540.3506,18.5087 L581.0106,1.0077 C582.7486,0.3147 584.6086,-0.0733 586.4776,0.0117 Z M205.545821,8.86428041 C206.627215,8.86428041 179.436952,34.1317415 146.077344,8.57124337 C171.278955,6.83582567 191.101781,6.93350468 205.545821,8.86428041 Z" id="Skin" fill="#fbc4ad"/><path d="M41.2232302,472.008878 C41.704006,472.280674 41.8734176,472.890754 41.6016216,473.37153 C41.5694954,473.428357 41.5064516,473.540149 41.4150156,473.702712 C41.2624174,473.974014 41.0853451,474.289708 40.8858399,474.646459 C40.3156151,475.666122 39.6801353,476.810016 38.9957339,478.051451 C37.0404306,481.598174 35.0851989,485.215176 33.2608897,488.688528 C32.9092432,489.358037 32.5653313,490.016824 32.2297468,490.663918 C28.7727699,497.329873 26.3690714,502.421466 25.4267597,505.247698 C25.2520729,505.771629 24.6857318,506.054747 24.1618015,505.88006 C23.6378712,505.705373 23.3547535,505.139032 23.5294403,504.615102 C24.5164263,501.654879 26.9480722,496.504087 30.4542983,489.743167 C30.7915132,489.092929 31.1370299,488.431068 31.4902617,487.75854 C33.3214943,484.272007 35.2829147,480.643556 37.2442634,477.085868 C37.9306902,475.840759 38.5681223,474.69335 39.1402543,473.670277 C39.340574,473.31207 39.5184483,472.994946 39.6718386,472.722235 C39.7639956,472.558391 39.8274271,472.445911 39.8605784,472.38727 C40.1323743,471.906494 40.7424543,471.737082 41.2232302,472.008878 Z M55.0359027,469.557141 C55.5563534,469.741937 55.8284553,470.313652 55.6436593,470.834103 L45.6026593,499.113103 C45.4178633,499.633553 44.846148,499.905655 44.3256973,499.720859 C43.8052466,499.536063 43.5331447,498.964348 43.7179407,498.443897 L53.7589407,470.164897 C53.9437367,469.644447 54.515452,469.372345 55.0359027,469.557141 Z M25.2356514,466.800818 C25.6905586,467.113991 25.8054563,467.736644 25.4922824,468.191551 C25.4588234,468.240153 25.3893608,468.343875 25.2862885,468.502251 C25.1115186,468.770794 24.9079224,469.093063 24.6778928,469.468593 C24.0171309,470.547306 23.2793278,471.833498 22.4836205,473.323438 C20.2043891,477.591237 17.92295,482.629553 15.7922402,488.408626 C14.7368053,491.271257 13.7435606,494.252505 12.8231864,497.350302 C12.6658947,497.879714 12.1092109,498.181378 11.5797982,498.024086 C11.0503855,497.866795 10.7487219,497.310111 10.9060136,496.780698 C11.8387349,493.641343 12.8455569,490.619342 13.9157202,487.716764 C16.0789066,481.849606 18.3980705,476.727978 20.7194422,472.381273 C21.5339459,470.856137 22.2913388,469.535795 22.9724194,468.423911 C23.2120347,468.032732 23.4253681,467.69505 23.6100204,467.411322 C23.7226013,467.238336 23.8016999,467.120225 23.8449176,467.057449 C24.1580914,466.602541 24.7807441,466.487644 25.2356514,466.800818 Z M23.322038,431.928079 C23.8436274,432.109636 24.1192781,432.679649 23.9377212,433.201238 C23.9282742,433.228378 23.9044269,433.314185 23.8776426,433.449414 C23.6594031,434.551265 23.8362478,435.799595 24.7187139,436.994194 C25.2171671,437.668953 25.9248579,438.291339 26.8751935,438.845734 C27.3522382,439.124027 27.5133585,439.736349 27.2350658,440.213393 C26.9567731,440.690438 26.3444512,440.851558 25.8674065,440.573266 C24.6877733,439.885105 23.7742764,439.081722 23.1100407,438.182542 C21.8535519,436.481626 21.59696,434.670368 21.9157551,433.06083 C21.9614216,432.830268 22.0100252,432.655383 22.0488788,432.543762 C22.2304358,432.022173 22.8004485,431.746522 23.322038,431.928079 Z M574.156675,23.8743503 C574.409704,24.3652624 574.216862,24.968346 573.72595,25.2213751 C573.659698,25.2555229 573.659698,25.2555229 573.345442,25.4173533 C572.915299,25.6387697 572.675342,25.7622318 572.269611,25.9708473 C571.11046,26.5668512 569.816932,27.2309531 568.421485,27.9461336 C564.434404,29.9895524 560.429232,32.0329925 556.665516,33.9403493 C556.441355,34.0539375 556.441355,34.0539375 556.217148,34.167504 C547.802552,38.4292808 541.922487,41.337319 539.649878,42.326417 C534.249135,44.6770299 531.766965,47.5571211 531.541335,50.612887 C531.38067,52.7888116 532.499494,55.0573322 533.760073,55.9854988 C535.942062,57.5935899 538.987134,57.2754664 549.252461,54.1956712 C557.713768,51.6573603 573.191086,43.5127458 576.831373,40.5091627 C577.257371,40.157674 577.887649,40.2180756 578.239137,40.6440734 C578.590626,41.0700712 578.530224,41.7003486 578.104227,42.0518373 C574.255015,45.2278027 558.53976,53.4976263 549.827165,56.1113212 L549.405522,56.2382487 C549.402769,56.2392917 549.400009,56.2403239 549.397242,56.2413451 C549.312471,56.2726318 549.144302,56.3379011 548.904778,56.4360784 C548.500432,56.6018134 548.048566,56.7983752 547.561272,57.0246267 C546.169137,57.6709979 544.777474,58.4231742 543.484063,59.270053 C539.946071,61.5866038 537.853841,64.1353735 537.821928,66.7432365 C537.7801,70.2180426 539.070802,72.0305067 541.29928,72.7708728 C542.387956,73.1325631 543.572567,73.1940618 544.632291,73.0776659 C544.797989,73.0594663 544.910679,73.0422282 544.973041,73.0304471 C545.037896,73.0189903 545.169427,72.9944619 545.363168,72.9563003 C545.689775,72.891968 546.069695,72.8128753 546.498459,72.718464 C547.727326,72.447875 549.098214,72.1092808 550.575304,71.6982812 C554.794442,70.5243079 559.012562,69.0077775 562.941595,67.1161671 C566.165578,65.5639992 569.053676,63.8221116 571.521362,61.8837376 C574.419168,59.607983 576.504608,57.9567478 577.910068,56.8305714 C578.400687,56.4374447 578.771061,56.138206 579.037654,55.9204983 C579.195026,55.7919831 579.281844,55.7200552 579.314288,55.6926194 C579.736001,55.3360022 580.366963,55.3887736 580.723581,55.8104875 C581.080198,56.2322015 581.027426,56.8631635 580.605712,57.2197806 C580.563656,57.2553448 580.46831,57.3343388 580.30269,57.4695892 C580.030962,57.6914909 579.65586,57.994549 579.160682,58.3913286 C577.749579,59.5220272 575.659207,61.177167 572.756719,63.4565992 C570.166581,65.4911589 567.156279,67.3067513 563.809172,68.9181967 C559.763287,70.8660649 555.436853,72.4215367 551.111436,73.6250824 C549.597931,74.0462144 548.191839,74.3935035 546.928544,74.6716734 C546.485051,74.7693279 546.090621,74.8514413 545.749685,74.9185961 C545.691785,74.9300007 545.638777,74.940323 545.591045,74.9495233 C545.518309,75.0152521 545.428272,75.0986138 545.325701,75.1979362 C544.972643,75.5398114 544.618541,75.9324303 544.289327,76.3668084 C542.947601,78.1371362 542.441735,79.9830105 543.164817,81.809572 C543.9595,83.8141708 545.280259,85.1116493 547.118217,85.8574872 C547.629971,86.0651555 547.876481,86.6483627 547.668813,87.1601168 C547.461144,87.6718709 546.877937,87.9183812 546.366183,87.7107128 C544.030651,86.7629606 542.305038,85.0677646 541.305405,82.5461785 C540.280771,79.9578736 540.973265,77.4310085 542.69539,75.1587676 L542.746614,75.0928044 C542.05598,75.0318523 541.355949,74.8971879 540.66871,74.668867 C537.614024,73.6540101 535.769769,71.0642212 535.822075,66.7189637 C535.860002,63.619626 537.866079,60.8643864 541.201423,58.4183949 C536.701042,59.3502291 534.52589,59.0343618 532.573883,57.5957637 C530.775285,56.2714532 529.333873,53.348855 529.546765,50.465613 C529.833194,46.5864319 532.824114,43.116032 538.851732,40.4925786 C541.071868,39.5263179 546.945944,36.6212423 555.313492,32.3832941 C555.537483,32.2698369 555.537483,32.2698369 555.761433,32.1563556 C559.522134,30.250527 563.524709,28.2084113 567.50929,26.1662742 C568.903924,25.4515101 570.196676,24.7878064 571.355075,24.1921898 C571.760487,23.9837381 572.000271,23.8603647 572.429966,23.6391791 C572.743793,23.4775697 572.743793,23.4775697 572.80965,23.4436249 C573.300562,23.1905959 573.903646,23.3834382 574.156675,23.8743503 Z M540.352694,17.5087999 C540.904977,17.510125 541.351619,17.9589108 541.3503,18.511194 C541.329762,27.0889489 536.076472,34.5122405 523.139236,39.5664442 C523.159841,42.5908531 523.084649,46.1932598 522.837431,49.6614951 C522.47909,54.6886816 521.837803,58.2644481 520.748799,59.988777 C520.453892,60.4557332 519.836279,60.5952064 519.369323,60.300299 C518.902367,60.0053917 518.762894,59.3877793 519.057801,58.920823 C519.90074,57.5861139 520.5094,54.1922717 520.842492,49.5192947 C521.093644,45.9958736 521.164406,42.3143727 521.136881,39.2773754 C521.135202,39.0921357 521.133533,38.9640251 521.132439,38.8984794 C521.125395,38.4762373 521.384358,38.0950852 521.779505,37.9460994 C534.430301,33.1762613 539.33145,26.3814971 539.350303,18.506406 C539.351625,17.9541229 539.800411,17.5074807 540.352694,17.5087999 Z" id="Skin-Shadows" fill="#bc8f01"/></g></g></g></g></svg>